<svg width="102" height="106" fill="none" xmlns="http://www.w3.org/2000/svg"><path d="M94.72 30.009c1.03 1.452 1.97 2.949 2.486 4.67.018.064-.028.142-.042.214-.123-.035-.299-.024-.364-.105a8.326 8.326 0 01-.66-.95c-1.016-1.669-2.452-2.983-3.745-4.417-.258-.284-.58-.514-.891-.742-.39-.281-.839-.409-1.319-.325-.219.036-.49.09-.624.237-.137.148-.128.426-.191.643-.022.07-.071.126-.108.191-.348.018-.524-.266-.763-.436-.439-.313-.834-.756-1.322-.925-1.488-.52-2.657-1.581-4.051-2.247-.373-.177-.575-.505-.694-.886l.046.03c-.13.02-.18-.255-.087-.52l-.028.034c-.427-.504-1.006-.687-1.631-.763-1.754-.215-3.508-.412-5.26-.631-.533-.066-1.062-.184-1.503-.526l.03.02c-.543.04-1.093.146-1.628.1-1.252-.105-2.49.036-3.73.14-.221.018-.442 0-.792 0 2.154-.655 2.154-.655 4.89-.759.06-.216.079-.458.192-.643.113-.184.315-.318.482-.47a54.647 54.647 0 00-.69-.596c-2.95.588-3.454.643-4.69.462a18.924 18.924 0 013.305-.57c.45-.035.91.088 1.369.14.997-.122 1.985-.184 2.993-.065.76.09 1.54.103 2.3-.097.775-.207 1.525-.093 2.259.197.284.111.578.22.878.273.757.135 1.54.17 2.277.368.737.197 1.428.56 2.15.816.207.072.454.03.684.04l-.029.045c-.231-.569-.772-.758-1.268-.952a36.168 36.168 0 00-6.283-1.812c-2.077-.408-4.178-.562-6.284-.59-1.714-.019-3.434-.14-5.142.182-.621.118-1.246.046-1.855-.136a2.327 2.327 0 00-1.814.174c-.274.145-.575.243-.86.368-.473.212-.908.189-1.28-.206-.306-.328-.676-.359-1.066-.22-.442.155-.865.362-1.309.506-.566.183-1.076.044-1.512-.359-.17-.16-.319-.34-.492-.496-1.048-.933-1.982-1.978-3.084-2.862a7.17 7.17 0 01-2.028-2.541c-.43-.915-.934-1.793-1.404-2.686l.046.029c-.387-.171-.5-.543-.657-.885l.036.038c-.042-.051-.109-.1-.114-.154-.01-.12.018-.242.027-.365l-.032.031c-1.21-1.116-2.608-1.977-3.954-2.908-.25-.176-.554-.383-.839-.387-1.475-.026-2.677-.801-3.883-1.465-2.63-1.447-5.434-2.337-8.347-2.941-.535-.11-1.088-.135-1.617-.257C29.734.72 28.263.78 26.78.958c-1.24.148-2.485.242-3.72.393a6.097 6.097 0 00-1.35.332c-.583.215-1.165.46-1.703.77-1.157.665-2.386 1.161-3.642 1.588-2.867.98-5.26 2.702-7.474 4.696-.81.728-1.558 1.53-2.355 2.278A7.356 7.356 0 005.21 12.64c-.118.2-.229.418-.385.588-.361.395-.819.726-1.11 1.165-.244.372-.129.931-.478 1.291-.355.369-.368.839-.459 1.292-.126.614-.304 1.204-.829 1.634-.377.306-.506.766-.648 1.217-.844 2.697-1.431 5.424-1.198 8.28.052.617-.02 1.245-.024 1.867-.004 2.907.505 5.739 1.203 8.546.414 1.662.718 3.353 1.129 5.016.221.906.552 1.782.85 2.668.175.516.413 1.014.57 1.532.654 2.175 1.622 4.219 2.518 6.294.618 1.425 1.147 2.891 1.73 4.33.144.355.292.754.555 1.008.766.723 1.156 1.622 1.48 2.596.375 1.116 1.013 2.11 1.688 3.062.72 1.018 1.367 2.073 2.01 3.14 1.045 1.73 2.03 3.5 3.175 5.172.57.829.933 1.807 1.77 2.448.173.133.297.37.363.587.36 1.207 1.19 2.18 1.629 3.352.185.492.558.935.922 1.33.681.745 1.42 1.443 2.134 2.16.02-.078.041-.151.062-.228-.033.068-.062.136-.095.207.288 1.237.938 2.304 1.624 3.346.387.59.853 1.065 1.613 1.244.637.151.969.748 1.231 1.326.058.127.063.332-.007.443-.222.369-.233.72-.049 1.099.683 1.396 1.268 2.845 2.188 4.116.33.454.567.94.576 1.503.013.944.159 1.859.543 2.726.03.069.037.153.057.227.331 1.255.331 1.255-.126 2.801.316.367.62.825 1.027 1.162.364.304.667.636.963.999.278.34.296.691.26 1.087-.016.15.035.304.057.458l-.037-.026c.153.014.31.047.464.04.252-.013.472-.149.483-.394.02-.46-.022-.928-.055-1.39-.055-.702.007-.929.56-1.084.95-.266 1.672-.784 2.191-1.622a2.934 2.934 0 011.002-.956c1.266-.764 2.528-1.527 3.945-1.984.22-.07.482-.073.672-.194 1.981-1.247 4.269-1.854 6.296-3.006.067-.038.124-.095.182-.145l.03.028c-.208.053-.42.114-.63.153-.668.13-1.126-.118-1.349-.77l.045.027c-1.324-.288-2.581-.203-3.818.45-.532.28-1.182.337-1.775.495l.024-.034c-.438.534-.974.329-1.5.203-.273-.065-.4-.316-.249-.496.098-.12.196-.243.317-.333.57-.423.63-1.284 1.318-1.58.568-.241 1.178-.38 1.753-.601.357-.137.688-.344 1.03-.522.618-.317 1.235-.641 1.858-.948.44-.217.858-.228 1.322.03.54.304 1.046.105 1.474-.312l-.024.033c.276-.22.557-.44.834-.655l-.01.028c.88-1.171 2.17-1.353 3.495-1.41.209-.008.428.158.641.24l-.018-.023c.29-.225.593-.441.87-.683.389-.34.735-.476 1.063.077.036.057.32.057.392-.014.264-.254.484-.548.724-.832.114-.092.214-.201.337-.277.184-.115.29-.07.26.093-.009.042-.12.079-.188.094-.142.031-.291.045-.435.065.22.078.43.194.653.223.56.065 1.092.009 1.398-.565.309-.582.81-.91 1.407-1.138 2.105-.812 4.245-1.442 6.543-1.192.6.066 1.028-.249 1.414-.648-.152.018-.305.047-.455.053-.227.009-.302-.082-.186-.226.03-.038.154-.033.217-.007.142.057.27.139.404.212.156-.166.365-.307.458-.503.252-.543.7-.817 1.228-.968.89-.251 1.79-.468 2.688-.7l-.023.034a3.628 3.628 0 011.74-.633c.619-.052 1.248-.017 1.862-.094.523-.065 1.037-.235 1.615-.372-.124.208-.164.392-.275.45-.684.365-1.372.705-1.965 1.235-.58.52-1.303.895-2.12.859-.922-.042-1.644.421-2.396.823a.604.604 0 00-.256.363c-.068.343-.25.58-.58.65a10.49 10.49 0 00-3.452 1.39c-.477.297-1.004.407-1.556.44-.846.053-1.707-.028-2.558.218-.085.22-.186.432-.245.655-.087.34.121.636.45.666.232.02.467.032.7.041.234.009.474-.031.699.009.588.1 1.075.7 1.758.354.972.059 1.813-.402 2.7-.683a.664.664 0 00.206-.108c.058-.05.142-.12.14-.178-.008-.179-.128-.28-.318-.267-.307.014-.611.047-.895.068-.135-.147-.086-.25.125-.308.543-.15 1.005-.385 1.306-.903.151-.261.401-.465.619-.685.141-.146.51-.075.614.122.141.274.253.569.402.842a.487.487 0 00.587.248c1.958-.547 3.812-1.365 5.647-2.232.773-.364 1.543-.743 2.315-1.108.212-.098.442-.155.655-.246 1.816-.763 3.54-1.655 4.548-3.319.594-.239 1.252-.073 1.46-.777.03-.105.248-.19.394-.217.972-.185 1.696-.751 2.342-1.452 1.16-1.262 2.373-2.481 3.474-3.792.796-.95 1.446-2.02 2.157-3.041.22-.32.37-.7.624-.985 1.106-1.241 1.774-2.734 2.511-4.19.491-.97.884-1.997 1.572-2.863.189-.238.307-.548.397-.843.554-1.787 1.115-3.571 1.618-5.368.187-.668.309-1.373.161-2.082-.229-1.085-.159-2.164.01-3.25.084-.537.054-1.091.138-1.628.144-.949.121-1.836-.365-2.716-.254-.459-.293-1.045-.386-1.578-.368-2.071-.696-4.149-1.367-6.154-.176-.527-.215-1.07.254-1.527.07-.067.038-.323-.036-.436a3.93 3.93 0 01-.601-1.748c-.08-.812-.452-1.512-.976-2.088-1.055-1.153-1.958-2.413-2.777-3.738-.111-.18-.36-.279-.545-.414l.03-.045c-.144.197-.284.397-.428.594l.018-.021zM7.26 15.634l-.41.566c-.072.1-.14.2-.212.3l-.098-.123c.113-.052.225-.107.338-.16l.418-.566c.121-.179.246-.358.367-.54.128-.18.253-.36.381-.543l.389-.543.384-.544c.441-.935 1.142-1.66 1.867-2.374 1.63-1.605 3.566-2.757 5.567-3.82.826-.44 1.647-.887 2.49-1.29.488-.232 1.016-.383 1.527-.57l.491-.083 1.571-.373c.295-.067.592-.183.889-.196.685-.026 1.375-.042 2.057.021.453.042.704-.132.958-.462.122-.157.406-.31.576-.28 1.017.19 1.992-.038 2.977-.21.38-.067.76-.127 1.137-.19l-.033-.024c.693.444 1.516.226 2.26.462.81.26 1.651.42 2.487.594.218.045.46-.033.692-.053l-1.128-.615-.947-.508c-.109-.055-.358.2-.335-.15l.315.186c1.09-.115 2.081.231 3.04.679.112.05.232.219.233.333-.002.122-.14.244-.215.367-.017.228-.039.452-.055.683-.48.217-.91-.08-1.348-.165-3.637-.696-7.269-.812-10.898.038-.38.089-.766.157-1.153.203-1.417.17-2.71.744-3.987 1.314-1.633.73-3.21 1.59-4.798 2.415-.621.32-1.228.683-1.804 1.074-1.355.915-2.686 1.863-4.032 2.788-.126.087-.286.117-.431.178-.128.184-.256.364-.38.546l-.39.544c-.036.242-.144.433-.377.542-.134.188-.26.367-.38.55zm49.146 4.141c-.184-.13-.364-.263-.548-.394-.27-.272-.553-.53-.808-.819-.092-.106-.13-.266-.164-.407-.012-.05.05-.141.1-.172a.22.22 0 01.197.004c.486.35.49.924.647 1.424.183.128.367.26.554.386 0 .004.022-.022.022-.022zM53.39 87.22c.098-.097.189-.212.301-.29.168-.12.278-.083.256.075-.004.042-.112.078-.18.097-.133.037-.273.06-.411.09-.101.102-.198.21-.312.3-.036.028-.113.007-.171.01.172-.095.344-.19.517-.282zm-2.199.876l-.033-.024c-.112.103-.21.223-.336.31-.185.126-.304.076-.275-.102.008-.045.122-.086.194-.102.147-.043.3-.057.45-.082zm8.06-2.794c.093-.107.175-.235.286-.32.163-.127.28-.091.277.068-.001.037-.112.077-.182.1-.136.049-.278.083-.418.125-.168.142-.321.308-.51.41-.102.053-.263-.004-.397-.012.094-.074.176-.184.284-.22.216-.073.443-.104.66-.15zm4.985-1.764c-.248.148-.491.303-.74.444-.058.032-.172.054-.21.024-.14-.124-.085-.218.126-.26l.85-.18c1.314-.786 1.314-.786 2.287-.573-.834.195-1.572.37-2.313.545zm-2.536-2.13c-1.974.956-4.092 1.52-6.175 2.162a24.27 24.27 0 00-2.631.951 41.71 41.71 0 01-4.375 1.663c-2.228.696-4.511 1.287-6.567 2.422-1.475.814-3.08 1.09-4.66 1.493a.855.855 0 01-.86-.247c-.62-.692-1.385-1.253-1.759-2.163-.137-.338-.46-.619-.75-.869-.245-.213-.43-.44-.522-.745-.3-1.003-.835-1.801-1.735-2.399-.502-.335-.86-.89-1.283-1.347-1.064-1.16-1.66-2.632-2.604-3.874-.132-.173-.194-.431-.214-.66-.079-.849-.556-1.41-1.216-1.896-.836-.616-1.414-1.425-1.678-2.456a2.392 2.392 0 00-.573-.999c-.924-.965-1.537-2.14-2.279-3.228-.962-1.416-1.855-2.872-3.018-4.144-.365-.4-.777-.835-.937-1.328-.374-1.156-1.162-2.012-1.863-2.944-.847-1.122-1.627-2.306-2.204-3.573-.975-2.131-2.13-4.167-3.18-6.256-.595-1.182-1.238-2.36-1.67-3.603-.588-1.692-1.017-3.44-1.472-5.172a147.215 147.215 0 01-1.155-4.775c-.122-.529-.217-1.08-.208-1.619.01-.933.105-1.866.174-2.798.059-.776.11-1.554.209-2.326.187-1.464.296-2.952.64-4.383.682-2.846 1.976-5.36 4.031-7.534 2.244-2.371 4.819-4.193 7.806-5.443 1.582-.662 3.204-1.232 4.836-1.77.733-.243 1.524-.32 2.29-.456 2.41-.428 4.83-.062 7.244-.068 1.294-.002 4.88 1.16 5.99 1.876 2.095 1.352 4.274 2.609 5.785 4.68 1.003.864 1.45 2.012 1.624 3.28.093.69.14 1.394.147 2.092.008.934-.083 1.87-.056 2.805.026.946-.005 1.864-.403 2.748-.239.534-.119 1.077.156 1.573.416.752.88 1.477 1.263 2.242.127.255.152.623.073.9-.252.9-.59 1.768-1.179 2.525-.261.335-.15.78.162 1.038 1.21.998 2.179 1.123 3.417.46a8.231 8.231 0 001.72-1.2c.979-.897 1.994-1.751 2.99-2.629.945-.831 1.971-1.53 3.125-2.035.354-.155.722-.316 1.021-.554 1.634-1.3 3.59-1.855 5.541-2.402.895-.249 1.837-.373 2.765-.465 1.084-.108 2.182-.136 3.272-.164a18.82 18.82 0 012.101.043c1.01.086 2.02.2 3.023.35 1.853.28 3.692.632 5.472 1.244 1.928.665 3.785 1.453 5.261 2.94.381.386.848.688 1.289 1.008 1.075.786 2.086 1.63 2.818 2.77.21.326.486.612.764.886.663.659 1.393 1.259 1.998 1.964.658.763.955 1.789 1.695 2.512a.568.568 0 01.141.187c.095.212.234.425.248.643.075.956.436 1.813.836 2.663.605 1.288.932 2.648.974 4.07a26.025 26.025 0 01-.501 5.806 6.885 6.885 0 01-.719 1.965c-.495.9-.644 1.927-1.1 2.82-.493.971-1.157 1.852-1.716 2.788-.24.401-.38.856-.603 1.268a3.387 3.387 0 01-.525.762c-.86.899-1.754 1.77-2.618 2.67-2.349 2.447-5.105 4.31-8.127 5.838-1.733.88-3.53 1.662-5.026 2.972-.456.4-1.058.66-1.636.885-1.6.62-3.206 1.22-4.833 1.764-1.244.414-2.432 1.11-3.832.85a.402.402 0 00-.228.05c-1.147.508-2.409.586-3.589.982-.459.165-.473.565-.621.914zm29.561-51.043c.051-.067.085-.15.146-.182.061-.033.177-.048.226-.016 1.88 1.343 3.159 3.196 4.307 5.148.114.194.155.441.19.671.02.144-.04.298-.063.445-.131-.037-.269-.065-.392-.118a.366.366 0 01-.16-.165c-.944-1.725-2.21-3.192-3.569-4.593-.267-.273-.432-.643-.638-.973-.042-.055-.035-.145-.047-.217zm-44.025 59.26c-.119.019-.264.054-.41.064-.066.004-.136-.044-.207-.069.05-.119.067-.283.157-.343.442-.29.907-.53 1.462-.472.068.007.182.076.181.113-.005.126-.018.335-.087.361-.346.139-.71.23-1.096.345zm51.006-54.74c.32.131.443.27.647.825.033.09-.073.229-.112.346-.061-.034-.138-.054-.187-.101-.25-.268-.513-.533-.492-.938.003-.049.092-.09.144-.131zm.788 7.147c.07.393-.012.657-.122.506a1.083 1.083 0 01-.16-.411c-.095-.412-.015-.66.112-.498.085.111.115.268.17.403zM70.713 21.64l-.417-.089c.107-.087.203-.218.326-.257.328-.11.633.02.479.152-.111.089-.26.128-.388.194zM45.247 96.118c-.215-.005-.253-.142-.072-.25.105-.061.263-.04.399-.044.015.001.05.143.043.148-.12.06-.248.148-.37.146zM64.38 87.91c.074.002.187-.027.219.008.116.146.044.243-.183.233-.063-.004-.128-.063-.189-.097.051-.046.102-.095.153-.144zm4.63-5.892c-.04.062-.069.136-.125.175a.375.375 0 01-.211.061c-.203-.003-.31-.129-.205-.253.078-.09.264-.099.405-.119.04-.003.092.091.136.136zm3.644 4.227c-.19.113-.283.07-.244-.118.007-.027.132-.048.196-.04.022 0 .032.102.049.158zm-28.05 4.021l.184.014-.118.112-.065-.126zm31.04-5.39a11.058 11.058 0 01-.206-.083c.04-.055.07-.137.122-.153.054-.013.125.038.188.064-.034.061-.072.12-.104.172zm2.707-.964c-.055-.02-.11-.044-.165-.064.032-.05.053-.12.098-.142.157-.07.247-.019.216.123-.009.038-.098.056-.149.083z" fill="#FF9556"/><path d="M47.481 94.378c.84-.121 1.653-.327 2.475-.546 1.711-.458 3.322-1.213 5.034-1.643.113-.03.265.088.4.14-.072.126-.15.25-.21.38-.027.057-.041.148-.012.19.035.054.124.105.186.102 1.277-.059 2.353-.68 3.426-1.276.465-.258.6-.891 1.126-1.134.233-.105.505-.088.8.154.437.361.562.384.98.105.122-.083.205-.23.303-.346l.034.024c-.09-.12-.258-.24-.264-.365-.028-.61-.216-1.028-.92-1.054-.464-.014-.954.005-1.38-.141-1.373-.467-2.572-.013-3.76.583-.39.198-.389.559.004.906.109.096.216.188.32.285-.033.06-.05.16-.101.183-.636.279-1.271.558-1.918.814-.287.114-.596.158-.89.248-.516.16-1.037.31-1.534.51-1.002.403-1.934.518-2.719-.43-.07-.088-.31-.114-.43-.064-.494.2-.97.438-1.446.661.124.348.23.61.316.879.089.287.156.582.23.871a.241.241 0 00-.05-.036zm1.369-1.031l.215-.036.027.18c-.073.008-.146.035-.21.02-.023-.003-.023-.11-.032-.164zm8.989-1.98c.03.043.096.11.085.133-.025.052-.094.123-.146.124-.202.004-.254-.087-.136-.22.035-.036.129-.026.197-.037zm37.246-61.883c-.016-.075-.015-.156-.048-.22a8.423 8.423 0 00-3.201-3.41c-.062-.038-.148-.027-.224-.037l.025-.03c-.094.344-.189.684-.282 1.027l-.043-.037c.463.125.748.487 1.07.801.808.782 1.386 1.787 2.338 2.434l-.03.024c.144-.2.285-.398.428-.595l-.033.043zM50.091 90.138c.533.165 1.074.204 1.59-.015.85-.36 1.683-.763 2.521-1.15l.019.023c-1.254.283-2.5.59-3.69 1.087-.137.056-.297.053-.447.082l.007-.027zm-.661 4.828c1.011-.084 2.01-.199 2.837-.871.048-.041.09-.14.074-.197-.017-.06-.135-.147-.163-.135-.891.444-1.954.507-2.717 1.231l-.03-.028z" fill="#FF9556"/><path d="M91.458 27.7c-.048-.31-.1-.617-.146-.923l.043.037c-.27-.095-.537-.212-.817-.276-.107-.022-.242.074-.364.116.057.123.086.292.181.357.361.241.742.447 1.118.667l-.015.021zM54.35 14.502c-.378-.411-.507-.567-.656-.708-.047-.043-.157-.084-.201-.058-.142.079-.14.222.023.335.162.11.348.185.835.431zm11.285 70.967c-.012-.05-.012-.138-.035-.145a.287.287 0 00-.199.003c-.204.1-.187.183.04.2.064.004.127-.036.194-.058zm25.977-59.655c-.107-.196-.207-.396-.323-.587-.035-.053-.13-.115-.188-.105-.19.028-.207.149-.029.288.178.137.374.251.56.375.004-.001-.02.029-.02.029zm-6.704-.339c-.369-.51-.905-.674-1.5-.71l.02-.033c.366.517.867.757 1.501.714l-.02.029zM51.455 10.162c-.301-.322-.61-.631-1.054-.749l.016-.036c.053.323.104.646.158.968l-.046-.029c.318-.064.631-.127.95-.188l-.024.034zm30.974 14.769c.335-.067.666-.137 1.001-.204l-.02.033-1.054-.288.027-.034.087.52-.041-.026zm-20.444 65.57c.07-.022.137-.044.207-.064-.058.029-.115.06-.173.088a.219.219 0 01-.034-.024zm11.977-67.945l.03.02c-.001-.003-.03-.02-.03-.02zm12.278-.651l.1.094-.13-.049.03-.045z" fill="#FF9556"/><path d="M84.932 25.442l-.024.03c0 .003.024-.03.024-.03zM41.933 95.35l.024-.034-.024.033zM50.4 9.413l-.564-.399.032-.031.086.516-.036-.038.499-.084-.017.036zm1.075.719c.181.132.36.26.541.393l.003.017c-.187-.127-.377-.25-.564-.377 0-.003.02-.033.02-.033zm.541.392l.058.057-.055-.042-.003-.014zM37.332 4.952c-.279-.344-.666-.345-1.058-.328.29.301.653.377 1.058.328z" fill="#FF9556"/></svg>