<svg width="56" height="56" fill="none" xmlns="http://www.w3.org/2000/svg"><path fill-rule="evenodd" clip-rule="evenodd" d="M15.123 3.381H3.5v.511l2.033.613c1.175.477 1.852 1.158 2.033 2.043v19.175l7.557-22.342zm-.11 49.033h3.532v-.51l-.678-.103a7.405 7.405 0 01-1.49-.409c-.452-.204-.904-.51-1.356-.919a.501.501 0 01-.008-.007v1.948zm0-17.477v-.921L36.978 6.854c.362-.544.542-.987.542-1.327 0-.681-.225-1.158-.677-1.43l-.949-.205v-.51h8.268v.51l-1.22.102c-2.078.273-3.84 1.226-5.286 2.86l-.136.205-14.773 18.387 21.55 23.495a8.05 8.05 0 002.576 1.94c.994.41 1.852.716 2.575.92l1.084.307v.51H35.623v-.51l.678-.205c.361-.204.587-.544.677-1.021 0-.204-.09-.443-.27-.715-.091-.34-.317-.75-.678-1.226L18.816 30.247l-3.803 4.69z" fill="#26201A"/></svg>