<svg width="456" height="579" fill="none" xmlns="http://www.w3.org/2000/svg"><path opacity=".05" d="M381.024 12.925C328.279 2.695 274.746-1.239 221.214.335 98.404.335 0 37.319 0 148.27c0 98.361 73.213 147.935 184.214 147.935h12.596C60.617 337.123 0 474.041 0 566.894l48.809 11.803c0-85.77 61.404-282.492 246.406-282.492h85.809v282.492l74-11.803V.335l-74 12.59zm-196.81 270.69c-85.81 0-111-72.394-111-135.345 0-98.361 62.191-135.345 160.596-135.345 49.596-1.574 99.192 3.148 147.214 12.59v258.1h-196.81z" fill="#26201A"/></svg>