<svg width="26" height="27" fill="none" xmlns="http://www.w3.org/2000/svg"><path d="M8.245 14.855h0a2.925 2.925 0 104.18 2.645v-16A.575.575 0 0113 .925h5a.575.575 0 01.575.575A6.425 6.425 0 0025 7.925a.575.575 0 01.575.575v5a.575.575 0 01-.575.575s0 0 0 0V14a12.362 12.362 0 01-6.425-1.78l-10.33 2.635zm0 0a.588.588 0 00.33-.516h0V9.138m-.33 5.717l10.33-2.547V17.5A9.075 9.075 0 117.899 8.564h0a.575.575 0 01.676.574m0 0s0 0 0 0H8.5h.075v0zm15.85 3.771a11.212 11.212 0 01-6.093-2.132h-.001a.575.575 0 00-.59-.044l.034.067-.034-.067a.574.574 0 00-.316.517v0h.075-.075l7 1.66zm0 0V9.057a7.6 7.6 0 01-6.982-6.982h-3.868V17.5s0 0 0 0a4.076 4.076 0 11-6.15-3.505V9.847a7.925 7.925 0 1010 7.653m7-4.59l-7 4.59m0 0v0h.075-.075z" fill="#26201A" stroke="#26201A" stroke-width=".15"/></svg>