<svg width="391" height="554" fill="none" xmlns="http://www.w3.org/2000/svg"><path opacity=".05" d="M124.174 553.137c-26.09 0-47.412-4.767-63.969-14.299-16.556-10.034-29.099-22.828-37.628-38.381-8.53-16.055-14.55-33.364-18.062-51.927C1.505 429.966 0 411.905 0 394.345v-12.041c0-4.516.25-8.78.753-12.794a80.493 80.493 0 014.515-21.824c3.01-7.526 7.776-12.543 14.299-15.052 3.01-1.505 6.522-2.257 10.536-2.257 3.512 0 7.525 1.003 12.04 3.01 4.516 2.007 9.282 5.519 14.3 10.536 11.037 10.034 26.088 20.319 45.153 30.855 19.567 10.536 41.141 20.319 64.721 29.35 23.581 9.031 46.91 16.557 69.989 22.577 5.519-17.058 10.285-35.37 14.299-54.937 4.515-20.069 8.529-41.14 12.041-63.216 4.515-27.092 7.776-53.934 9.783-80.524 2.007-26.591 3.01-51.426 3.01-74.504 0-16.055-.501-30.856-1.505-44.402-1.003-13.546-2.257-24.835-3.763-33.865-2.006-13.045-6.02-24.584-12.041-34.618-5.518-10.536-13.546-15.804-24.082-15.804-14.549 0-26.34 6.271-35.37 18.814-8.53 12.543-14.801 29.1-18.815 49.67-3.512 20.569-5.268 42.896-5.268 66.978 0 26.59 2.007 53.181 6.021 79.772 4.014 26.59 9.282 49.92 15.804 69.988 6.522 20.069 13.546 33.866 21.072 41.392 3.01 3.01 4.515 5.518 4.515 7.525 0 3.011-2.508 4.516-7.525 4.516-5.519 0-10.035-2.007-13.547-6.021-11.539-12.543-21.824-29.601-30.855-51.174-9.031-22.076-16.306-46.409-21.824-72.999-5.017-26.591-7.526-53.182-7.526-79.772 0-26.089 3.01-50.422 9.031-73 6.02-22.576 15.553-41.14 28.597-55.69C191.403 9.785 208.461 1.506 229.533 0h9.031c19.065 0 34.618 4.766 46.659 14.299 12.543 9.03 22.075 21.322 28.597 36.876 6.523 15.553 11.038 32.862 13.547 51.927a438.07 438.07 0 013.762 57.195c0 18.563-.752 36.123-2.257 52.679-1.505 16.557-2.76 30.605-3.763 42.144-3.512 35.12-9.031 67.982-16.557 98.586-7.525 30.605-17.058 57.948-28.597 82.03a1937.298 1937.298 0 0120.319 3.01c6.522.502 12.543.753 18.062.753 8.529 0 16.054-.753 22.577-2.258 9.031-2.508 15.804-5.268 20.319-8.278 5.017-3.512 9.031-7.024 12.041-10.536 3.01-3.512 6.271-5.268 9.783-5.268 5.018 0 7.526 2.258 7.526 6.773v1.505c0 9.533-9.031 18.313-27.092 26.34-18.062 7.526-44.903 11.289-80.525 11.289h-15.051c-17.058 29.099-37.127 52.178-60.206 69.236-23.078 16.556-49.418 24.835-79.019 24.835h-4.515zm8.278-18.815c22.577 0 41.391-7.024 56.442-21.072 15.052-14.549 27.594-34.367 37.629-59.452-21.574-4.014-44.151-9.282-67.731-15.804-23.581-7.024-45.907-14.55-66.979-22.577-21.072-8.028-38.883-15.302-53.432-21.825.502 22.577 3.261 44.653 8.278 66.226 5.519 21.574 14.8 39.385 27.845 53.432 13.546 14.048 32.862 21.072 57.948 21.072z" fill="#26201A"/></svg>