<?xml version="1.0" encoding="utf-8"?><svg viewBox="0 0 48 48" xmlns="http://www.w3.org/2000/svg" xmlns:xlink="http://www.w3.org/1999/xlink"><svg viewBox="0 0 7 7" id="arrow-down-grey" xmlns="http://www.w3.org/2000/svg"><path d="M1 3.36l2.36 2.361 2.362-2.36" stroke-width=".5" stroke-linecap="round" stroke-linejoin="round"/></svg><svg viewBox="0 0 48 48" id="arrow-left" xmlns="http://www.w3.org/2000/svg"><path d="M48 25.2V24H15.6v1.2H48z"/><path fill-rule="evenodd" clip-rule="evenodd" d="M15.635 8.4c0 8.388-6.818 15.19-15.233 15.19v1.2c9.075 0 16.433-7.336 16.433-16.39h-1.2z"/><path fill-rule="evenodd" clip-rule="evenodd" d="M15.635 40.213c0-8.388-6.818-15.19-15.233-15.19v-1.2c9.075 0 16.433 7.336 16.433 16.39h-1.2z"/></svg><svg viewBox="0 0 48 48" id="arrow-right" xmlns="http://www.w3.org/2000/svg"><path d="M0 25.2V24h32.4v1.2H0z"/><path fill-rule="evenodd" clip-rule="evenodd" d="M32.365 8.4c0 8.388 6.818 15.19 15.232 15.19v1.2c-9.074 0-16.432-7.336-16.432-16.39h1.2z"/><path fill-rule="evenodd" clip-rule="evenodd" d="M32.365 40.213c0-8.388 6.818-15.19 15.232-15.19v-1.2c-9.074 0-16.432 7.336-16.432 16.39h1.2z"/></svg><svg viewBox="0 0 48 48" id="camera" xmlns="http://www.w3.org/2000/svg"><path d="M39 12l-6-6H9v36h30V12z"/><path d="M33 6v6h6M27 21.473l6-1.5v8.062l-6-1.5M27 27a3 3 0 01-3 3l-6-.465a3 3 0 01-3-3v-5.07a3 3 0 013-3L24 18a3 3 0 013 3v6z"/></svg><svg viewBox="0 0 26 26" id="instagram" xmlns="http://www.w3.org/2000/svg"><path d="M13 7.25a5.75 5.75 0 100 11.5 5.75 5.75 0 000-11.5zm0 10A4.25 4.25 0 1117.25 13 4.263 4.263 0 0113 17.25zM18.5.75h-11A6.75 6.75 0 00.75 7.5v11a6.75 6.75 0 006.75 6.75h11a6.75 6.75 0 006.75-6.75v-11A6.75 6.75 0 0018.5.75zm5.25 17.75a5.25 5.25 0 01-5.25 5.25h-11a5.25 5.25 0 01-5.25-5.25v-11A5.25 5.25 0 017.5 2.25h11a5.25 5.25 0 015.25 5.25v11zm-3-12a1.25 1.25 0 11-2.5 0 1.25 1.25 0 012.5 0z"/></svg><svg viewBox="0 0 48 48" id="pdf" xmlns="http://www.w3.org/2000/svg"><path d="M39 12l-6-6H9v36h30V12z"/><path d="M33 6v6h6M19.665 15.06C14.528 16.5 31.133 32.032 32.25 26.85c1.117-5.183-19.748 2.167-16.058 5.76 3.69 3.593 8.61-18.953 3.473-17.55z"/></svg><svg viewBox="0 0 24 24" id="star" xmlns="http://www.w3.org/2000/svg"><path d="M11.68.284c.045-.379.595-.379.64 0l.378 3.182a8.953 8.953 0 007.835 7.836l3.182.378c.38.045.38.595 0 .64l-3.181.378a8.953 8.953 0 00-7.836 7.835l-.378 3.182c-.045.38-.595.38-.64 0l-.378-3.181a8.953 8.953 0 00-7.836-7.836L.284 12.32c-.379-.045-.379-.595 0-.64l3.182-.378a8.953 8.953 0 007.836-7.836L11.68.284z"/></svg><svg viewBox="0 0 48 48" id="stars" xmlns="http://www.w3.org/2000/svg"><path d="M15.573 16.38c.06-.506.794-.506.854 0l.503 4.242A11.937 11.937 0 0027.378 31.07l4.243.503c.505.06.505.794 0 .854l-4.243.503A11.937 11.937 0 0016.93 43.378l-.503 4.243c-.06.505-.794.505-.854 0l-.503-4.243A11.937 11.937 0 004.622 32.93l-4.243-.503c-.505-.06-.505-.794 0-.854l4.243-.503A11.937 11.937 0 0015.07 20.622l.503-4.243zM39.786.19c.03-.253.398-.253.428 0l.251 2.121a5.969 5.969 0 005.224 5.224l2.121.252c.253.03.253.396 0 .426l-2.121.252a5.969 5.969 0 00-5.224 5.224l-.252 2.121c-.03.253-.397.253-.427 0l-.251-2.121a5.969 5.969 0 00-5.224-5.224l-2.121-.252c-.253-.03-.253-.396 0-.426l2.121-.252a5.969 5.969 0 005.224-5.224L39.787.19z"/></svg><svg viewBox="0 0 28 25" id="telegram" xmlns="http://www.w3.org/2000/svg"><path d="M26.75 1.162A1.762 1.762 0 0024.962.85L1.887 9.912a1.75 1.75 0 00.3 3.35l6.063 1.213V22A1.75 1.75 0 0010 23.75a1.723 1.723 0 001.238-.512l3.412-3.413 5.1 4.488a1.713 1.713 0 001.688.35 1.726 1.726 0 001.162-1.276l4.712-20.512a1.75 1.75 0 00-.562-1.713zm-24.463 10.4a.225.225 0 01.15-.25L21.75 3.726 8.825 13.063l-6.338-1.276a.225.225 0 01-.2-.225zm7.888 10.613a.238.238 0 01-.275.05.25.25 0 01-.15-.225v-6.488l3.762 3.325-3.337 3.338zm10.975.875a.25.25 0 01-.412.137L10.2 13.912 25.825 2.637 21.15 23.05z"/></svg></svg>