<svg width="48" height="48" fill="none" xmlns="http://www.w3.org/2000/svg"><path d="M15.573 16.38c.06-.506.794-.506.854 0l.503 4.242A11.937 11.937 0 0027.378 31.07l4.243.503c.505.06.505.794 0 .854l-4.243.503A11.937 11.937 0 0016.93 43.378l-.503 4.243c-.06.505-.794.505-.854 0l-.503-4.243A11.937 11.937 0 004.622 32.93l-4.243-.503c-.505-.06-.505-.794 0-.854l4.243-.503A11.937 11.937 0 0015.07 20.622l.503-4.243zM39.786.19c.03-.253.398-.253.428 0l.251 2.121a5.969 5.969 0 005.224 5.224l2.121.252c.253.03.253.396 0 .426l-2.121.252a5.969 5.969 0 00-5.224 5.224l-.252 2.121c-.03.253-.397.253-.427 0l-.251-2.121a5.969 5.969 0 00-5.224-5.224l-2.121-.252c-.253-.03-.253-.396 0-.426l2.121-.252a5.969 5.969 0 005.224-5.224L39.787.19z" fill="#FF9556"/></svg>