<svg width="28" height="25" fill="none" xmlns="http://www.w3.org/2000/svg"><path d="M26.75 1.162A1.762 1.762 0 0024.962.85L1.887 9.912a1.75 1.75 0 00.3 3.35l6.063 1.213V22A1.75 1.75 0 0010 23.75a1.723 1.723 0 001.238-.512l3.412-3.413 5.1 4.488a1.713 1.713 0 001.688.35 1.726 1.726 0 001.162-1.276l4.712-20.512a1.75 1.75 0 00-.562-1.713zm-24.463 10.4a.225.225 0 01.15-.25L21.75 3.726 8.825 13.063l-6.338-1.276a.225.225 0 01-.2-.225zm7.888 10.613a.238.238 0 01-.275.05.25.25 0 01-.15-.225v-6.488l3.762 3.325-3.337 3.338zm10.975.875a.25.25 0 01-.412.137L10.2 13.912 25.825 2.637 21.15 23.05z" fill="#26201A"/></svg>