<svg width="56" height="56" viewBox="0 0 56 56" fill="none" xmlns="http://www.w3.org/2000/svg">
<path fill-rule="evenodd" clip-rule="evenodd" d="M15.1229 3.38135H3.5V3.89211L5.5331 4.50501C6.70778 4.98172 7.38548 5.66273 7.5662 6.54804V25.723L15.1229 3.38135ZM15.0131 52.414H18.5449V51.9033L17.8672 51.8011C17.4154 51.733 16.9184 51.5968 16.3763 51.3925C15.9245 51.1882 15.4727 50.8818 15.0209 50.4731C15.0183 50.4708 15.0157 50.4684 15.0131 50.466V52.414ZM15.0131 34.9372V34.0157L36.9784 6.85449C37.3398 6.30969 37.5205 5.86703 37.5205 5.52653C37.5205 4.84552 37.2946 4.36881 36.8428 4.09641L35.894 3.89211V3.38135H44.162V3.89211L42.9421 3.99426C40.8638 4.26666 39.1018 5.22007 37.656 6.85449L37.5205 7.0588L22.7467 25.4461L44.2975 48.9409C45.0204 49.7581 45.8788 50.405 46.8728 50.8818C47.8667 51.2904 48.7251 51.5968 49.448 51.8011L50.5323 52.1076V52.6183H35.623V52.1076L36.3007 51.9033C36.6621 51.699 36.888 51.3585 36.9784 50.8818C36.9784 50.6775 36.888 50.4391 36.7073 50.1667C36.6169 49.8262 36.391 49.4176 36.0296 48.9409L18.816 30.2472L15.0131 34.9372Z" fill="#26201A"/>
</svg>
