<svg width="391" height="554" viewBox="0 0 391 554" fill="none" xmlns="http://www.w3.org/2000/svg">
<path opacity="0.05" d="M124.174 553.137C98.0845 553.137 76.7618 548.37 60.2053 538.838C43.6489 528.804 31.1061 516.01 22.577 500.457C14.0479 484.402 8.02738 467.093 4.5154 448.53C1.50513 429.966 0 411.905 0 394.345C0 390.331 0 386.318 0 382.304C0 377.788 0.250855 373.524 0.752566 369.51C1.25428 361.985 2.75941 354.71 5.26797 347.686C8.27823 340.16 13.0445 335.143 19.5667 332.634C22.577 331.129 26.089 330.377 30.1027 330.377C33.6146 330.377 37.6283 331.38 42.1437 333.387C46.6591 335.394 51.4254 338.906 56.4425 343.923C67.4801 353.957 82.5315 364.242 101.596 374.778C121.163 385.314 142.737 395.097 166.317 404.128C189.898 413.159 213.227 420.685 236.306 426.705C241.825 409.647 246.591 391.335 250.605 371.768C255.12 351.699 259.134 330.628 262.646 308.552C267.161 281.46 270.422 254.618 272.429 228.028C274.436 201.437 275.439 176.602 275.439 153.524C275.439 137.469 274.938 122.668 273.934 109.122C272.931 95.5759 271.677 84.2874 270.171 75.2566C268.165 62.2122 264.151 50.6728 258.13 40.6386C252.612 30.1027 244.584 24.8347 234.048 24.8347C219.499 24.8347 207.708 31.1061 198.678 43.6488C190.148 56.1916 183.877 72.7481 179.863 93.3183C176.351 113.888 174.595 136.215 174.595 160.297C174.595 186.887 176.602 213.478 180.616 240.069C184.63 266.659 189.898 289.989 196.42 310.057C202.942 330.126 209.966 343.923 217.492 351.449C220.502 354.459 222.007 356.967 222.007 358.974C222.007 361.985 219.499 363.49 214.482 363.49C208.963 363.49 204.447 361.483 200.935 357.469C189.396 344.926 179.111 327.868 170.08 306.295C161.049 284.219 153.774 259.886 148.256 233.296C143.239 206.705 140.73 180.114 140.73 153.524C140.73 127.435 143.74 103.102 149.761 80.5246C155.781 57.9476 165.314 39.3843 178.358 24.8347C191.403 9.78334 208.461 1.50511 229.533 0H238.564C257.629 0 273.182 4.76626 285.223 14.2988C297.766 23.3296 307.298 35.6215 313.82 51.1745C320.343 66.7276 324.858 84.0366 327.367 103.102C329.875 122.167 331.129 141.232 331.129 160.297C331.129 178.86 330.377 196.42 328.872 212.976C327.367 229.533 326.112 243.581 325.109 255.12C321.597 290.24 316.078 323.102 308.552 353.706C301.027 384.311 291.494 411.654 279.955 435.736C286.979 436.74 293.752 437.743 300.274 438.746C306.796 439.248 312.817 439.499 318.336 439.499C326.865 439.499 334.39 438.746 340.913 437.241C349.944 434.733 356.717 431.973 361.232 428.963C366.249 425.451 370.263 421.939 373.273 418.427C376.283 414.915 379.544 413.159 383.056 413.159C388.074 413.159 390.582 415.417 390.582 419.932V421.437C390.582 430.97 381.551 439.75 363.49 447.777C345.428 455.303 318.587 459.066 282.965 459.066H267.914C250.856 488.165 230.787 511.244 207.708 528.302C184.63 544.858 158.29 553.137 128.689 553.137H124.174ZM132.452 534.322C155.029 534.322 173.843 527.298 188.894 513.25C203.946 498.701 216.488 478.883 226.523 453.798C204.949 449.784 182.372 444.516 158.792 437.994C135.211 430.97 112.885 423.444 91.8131 415.417C70.7413 407.389 52.9305 400.115 38.3809 393.592C38.8826 416.169 41.642 438.245 46.6591 459.818C52.178 481.392 61.4596 499.203 74.5041 513.25C88.0503 527.298 107.366 534.322 132.452 534.322Z" fill="#26201A"/>
</svg>
