<svg width="456" height="579" viewBox="0 0 456 579" fill="none" xmlns="http://www.w3.org/2000/svg">
<path opacity="0.05" d="M381.024 12.9252C328.279 2.69561 274.746 -1.23881 221.214 0.334988C98.4049 0.334988 0 37.3187 0 148.27C0 246.631 73.2132 296.205 184.214 296.205H196.81C60.6174 337.123 0 474.041 0 566.894L48.8088 578.697C48.8088 492.927 110.213 296.205 295.215 296.205H381.024V578.697L455.024 566.894V0.334988L381.024 12.9252ZM184.214 283.615C98.4049 283.615 73.2132 211.221 73.2132 148.27C73.2132 49.9089 135.405 12.9252 233.81 12.9252C283.406 11.3514 333.002 16.0727 381.024 25.5154V283.615H184.214Z" fill="#26201A"/>
</svg>
