<svg width="26" height="27" viewBox="0 0 26 27" fill="none" xmlns="http://www.w3.org/2000/svg">
<path d="M8.24541 14.8549L8.24469 14.8552C7.77207 15.0798 7.36835 15.427 7.0756 15.8607C6.78286 16.2944 6.61182 16.7987 6.58031 17.321C6.5488 17.8433 6.65797 18.3645 6.89645 18.8303C7.13493 19.296 7.49398 19.6893 7.93617 19.969C8.37836 20.2488 8.8875 20.4048 9.41051 20.4208C9.93352 20.4368 10.4512 20.3122 10.9097 20.06C11.3682 19.8079 11.7506 19.4373 12.0171 18.987C12.2837 18.5367 12.4245 18.0232 12.425 17.4999V1.5C12.425 1.3475 12.4856 1.20125 12.5934 1.09341C12.7012 0.98558 12.8475 0.925 13 0.925H18C18.1525 0.925 18.2988 0.98558 18.4066 1.09341C18.5144 1.20125 18.575 1.3475 18.575 1.5C18.575 3.20402 19.2519 4.83824 20.4568 6.04316C21.6618 7.24808 23.296 7.925 25 7.925C25.1525 7.925 25.2988 7.98558 25.4066 8.09341C25.5144 8.20125 25.575 8.3475 25.575 8.5V13.5C25.575 13.6525 25.5144 13.7988 25.4066 13.9066C25.2988 14.0144 25.1526 14.0749 25.0002 14.075C25.0001 14.075 25.0001 14.075 25 14.075V14C22.7352 14.0064 20.5128 13.3907 18.575 12.2206L8.24541 14.8549ZM8.24541 14.8549C8.34245 14.8075 8.42455 14.7343 8.48269 14.6433C8.54083 14.5523 8.57277 14.447 8.57498 14.339H8.575V14.3375V9.13802M8.24541 14.8549L18.575 12.3082V17.5V17.5C18.5743 19.2263 18.0813 20.9165 17.1538 22.3724C16.2262 23.8283 14.9027 24.9895 13.3385 25.7196C11.7743 26.4498 10.0343 26.7186 8.32261 26.4947C6.61096 26.2707 4.99869 25.5632 3.67499 24.4552C2.35129 23.3471 1.37107 21.8846 0.849367 20.239C0.32766 18.5935 0.286103 16.8333 0.729573 15.165C1.17304 13.4967 2.08314 11.9895 3.35308 10.8202C4.62301 9.65097 6.20009 8.86817 7.89927 8.56368L7.89937 8.56366C7.98284 8.54881 8.06857 8.55261 8.1504 8.57478C8.23224 8.59695 8.30816 8.63694 8.37273 8.69189C8.43729 8.74684 8.48891 8.81539 8.52388 8.89263C8.55876 8.96967 8.57621 9.05346 8.575 9.13802M8.575 9.13802C8.575 9.13823 8.57499 9.13844 8.57499 9.13866L8.5 9.1375H8.575V9.13802ZM24.425 12.9093C22.2293 12.8113 20.1102 12.07 18.3316 10.7768L18.3306 10.7761C18.2455 10.7163 18.1457 10.6807 18.0419 10.6731C17.9381 10.6655 17.8342 10.6862 17.7413 10.733L17.775 10.8L17.7413 10.733C17.6456 10.7812 17.5652 10.8552 17.5094 10.9467C17.4535 11.038 17.4243 11.1432 17.425 11.2502V11.25H17.5L17.425 11.2505L24.425 12.9093ZM24.425 12.9093V9.05717C22.6211 8.91563 20.9261 8.13499 19.6455 6.85447C18.365 5.57395 17.5844 3.87886 17.4428 2.075H13.575V17.5C13.575 17.5 13.575 17.5 13.575 17.5C13.5753 18.2154 13.3872 18.9182 13.0298 19.5379C12.6723 20.1575 12.158 20.6722 11.5386 21.03C10.9191 21.3879 10.2164 21.5764 9.50102 21.5766C8.78564 21.5768 8.08282 21.3886 7.46321 21.0311C6.8436 20.6735 6.32904 20.1591 5.97125 19.5396C5.61347 18.9201 5.42507 18.2174 5.425 17.502C5.42493 16.7866 5.61318 16.0838 5.97084 15.4643C6.32126 14.8573 6.82219 14.3511 7.425 13.9945V9.84744C6.02703 10.2267 4.75909 10.9821 3.75958 12.0322C2.73778 13.1057 2.03749 14.4442 1.73823 15.8958C1.43898 17.3473 1.55275 18.8537 2.06664 20.2438C2.58052 21.634 3.47392 22.8521 4.64537 23.76C5.81682 24.6679 7.21938 25.2291 8.69376 25.3798C10.1681 25.5306 11.6553 25.2649 12.9862 24.613C14.3172 23.961 15.4387 22.9489 16.2233 21.6915C17.0079 20.4342 17.4243 18.982 17.425 17.5M24.425 12.9093L17.425 17.5M17.425 17.5V17.5H17.5L17.425 17.5Z" fill="#26201A" stroke="#26201A" stroke-width="0.15"/>
</svg>
