<svg width="48" height="48" viewBox="0 0 48 48" fill="none" xmlns="http://www.w3.org/2000/svg">
<path d="M39 12L33 6H9V42H39V12Z" fill="#FF9556" stroke="#26201A"/>
<path d="M33 6V12H39" stroke="#26201A"/>
<path d="M27 21.4725L33 19.9725V28.035L27 26.535" stroke="#26201A"/>
<path d="M27 27C27 27.7956 26.6839 28.5587 26.1213 29.1213C25.5587 29.6839 24.7956 30 24 30L18 29.535C17.2044 29.535 16.4413 29.2189 15.8787 28.6563C15.3161 28.0937 15 27.3307 15 26.535V21.465C15 20.6694 15.3161 19.9063 15.8787 19.3437C16.4413 18.7811 17.2044 18.465 18 18.465L24 18C24.7956 18 25.5587 18.3161 26.1213 18.8787C26.6839 19.4413 27 20.2044 27 21V27Z" stroke="#26201A"/>
</svg>
