<svg width="48" height="48" viewBox="0 0 48 48" fill="none" xmlns="http://www.w3.org/2000/svg">
<path d="M15.573 16.3793C15.6331 15.8736 16.3669 15.8736 16.427 16.3793L16.9304 20.6219C17.5804 26.1003 21.8997 30.4196 27.378 31.0696L31.6207 31.573C32.1264 31.6331 32.1264 32.3669 31.6207 32.427L27.378 32.9304C21.8997 33.5804 17.5804 37.8997 16.9304 43.378L16.427 47.6207C16.3669 48.1264 15.6331 48.1264 15.573 47.6207L15.0696 43.378C14.4196 37.8997 10.1003 33.5804 4.62192 32.9304L0.379298 32.427C-0.126433 32.3669 -0.126433 31.6331 0.379298 31.573L4.62192 31.0696C10.1003 30.4196 14.4196 26.1003 15.0696 20.6219L15.573 16.3793Z" fill="#FF9556"/>
<path d="M39.7865 0.189649C39.8165 -0.0632164 40.1835 -0.0632164 40.2135 0.189649L40.4652 2.31096C40.7902 5.05015 42.9499 7.20979 45.689 7.53481L47.8103 7.78651C48.0632 7.81654 48.0632 8.18346 47.8103 8.21349L45.689 8.4652C42.9499 8.79021 40.7902 10.9499 40.4652 13.689L40.2135 15.8103C40.1835 16.0632 39.8165 16.0632 39.7865 15.8103L39.5348 13.689C39.2098 10.9499 37.0502 8.79021 34.311 8.4652L32.1896 8.21349C31.9368 8.18346 31.9368 7.81654 32.1896 7.78651L34.311 7.53481C37.0502 7.20979 39.2098 5.05015 39.5348 2.31096L39.7865 0.189649Z" fill="#FF9556"/>
</svg>
