<svg width="28" height="25" viewBox="0 0 28 25" fill="none" xmlns="http://www.w3.org/2000/svg">
<path d="M26.75 1.16248C26.5084 0.953195 26.2144 0.813557 25.8995 0.758511C25.5847 0.703464 25.2608 0.73508 24.9625 0.849976L1.88749 9.91248C1.53344 10.0496 1.2336 10.2982 1.03322 10.6208C0.832844 10.9433 0.742794 11.3222 0.776661 11.7004C0.810528 12.0786 0.966474 12.4355 1.22097 12.7173C1.47546 12.999 1.8147 13.1904 2.18749 13.2625L8.24999 14.475V22C8.2504 22.3448 8.35265 22.6817 8.5439 22.9686C8.73515 23.2555 9.00689 23.4795 9.32499 23.6125C9.53948 23.6999 9.7684 23.7465 9.99999 23.75C10.23 23.7514 10.458 23.7068 10.6705 23.6187C10.883 23.5307 11.0758 23.4011 11.2375 23.2375L14.65 19.825L19.75 24.3125C20.0659 24.5957 20.4757 24.7516 20.9 24.75C21.0828 24.7515 21.2646 24.7219 21.4375 24.6625C21.7261 24.5707 21.9855 24.4046 22.1896 24.1808C22.3937 23.9569 22.5352 23.6833 22.6 23.3875L27.3125 2.87498C27.3829 2.56536 27.3678 2.24241 27.2687 1.94073C27.1696 1.63906 26.9903 1.37003 26.75 1.16248ZM2.28749 11.5625C2.27875 11.5098 2.28904 11.4557 2.31652 11.4099C2.344 11.3641 2.38688 11.3296 2.43749 11.3125L21.75 3.72498L8.82499 13.0625L2.48749 11.7875C2.43225 11.7813 2.38125 11.7549 2.34432 11.7134C2.30739 11.6718 2.28715 11.6181 2.28749 11.5625ZM10.175 22.175C10.1403 22.2113 10.095 22.2357 10.0456 22.2447C9.99622 22.2537 9.94523 22.2468 9.89999 22.225C9.85605 22.2058 9.81854 22.1744 9.79194 22.1345C9.76535 22.0946 9.75079 22.0479 9.74999 22V15.5125L13.5125 18.8375L10.175 22.175ZM21.15 23.05C21.1414 23.0933 21.1216 23.1337 21.0924 23.1668C21.0632 23.2 21.0257 23.2248 20.9838 23.2388C20.9418 23.2528 20.897 23.2554 20.8537 23.2464C20.8104 23.2374 20.7703 23.217 20.7375 23.1875L10.2 13.9125L25.825 2.63748L21.15 23.05Z" fill="#26201A"/>
</svg>
